<?xml version="1.0" standalone="no"?>
<!DOCTYPE svg PUBLIC "-//W3C//DTD SVG 20010904//EN"
 "http://www.w3.org/TR/2001/REC-SVG-20010904/DTD/svg10.dtd">
<svg version="1.0" xmlns="http://www.w3.org/2000/svg"
 width="706.000000pt" height="706.000000pt" viewBox="0 0 706.000000 706.000000"
 preserveAspectRatio="xMidYMid meet">
<metadata>
Created by potrace 1.11, written by Peter Selinger 2001-2013
</metadata>
<g transform="translate(0.000000,706.000000) scale(0.100000,-0.100000)"
fill="#000000" stroke="none">
<path d="M5532 6932 c-43 -13 -91 -61 -102 -102 -6 -23 -10 -154 -10 -331 1
-160 -1 -293 -3 -296 -3 -2 -11 2 -18 9 -43 42 -424 278 -449 278 -5 0 -10 5
-10 10 0 6 -3 9 -7 8 -5 -1 -52 19 -105 45 -264 127 -627 243 -857 273 -18 2
-36 6 -40 8 -4 3 -35 7 -70 11 -34 4 -72 8 -84 11 -119 25 -684 24 -807 -1
-14 -3 -43 -7 -65 -9 -95 -10 -324 -59 -485 -106 -41 -12 -79 -22 -85 -23 -5
-2 -14 -5 -20 -8 -5 -4 -28 -12 -50 -19 -59 -19 -219 -83 -300 -121 -38 -18
-73 -32 -77 -31 -5 1 -8 -1 -8 -6 0 -4 -15 -13 -32 -21 -97 -42 -447 -259
-456 -282 -2 -5 -10 -9 -18 -9 -8 0 -14 -4 -14 -10 0 -5 -7 -10 -15 -10 -8 0
-15 -4 -15 -8 0 -4 -21 -24 -47 -43 -163 -122 -384 -342 -538 -534 -22 -27
-42 -52 -45 -55 -28 -26 -193 -278 -273 -415 -28 -47 -155 -309 -171 -351 -59
-156 -82 -223 -111 -319 -34 -115 -62 -223 -69 -265 -3 -14 -5 -25 -6 -25 -2
0 -9 -35 -16 -85 -3 -25 -8 -47 -9 -50 -2 -3 -6 -33 -10 -65 -4 -33 -8 -71
-11 -85 -20 -119 -26 -555 -9 -705 4 -44 9 -92 9 -107 1 -16 5 -28 9 -28 5 0
5 -4 2 -10 -3 -5 2 -51 11 -102 9 -51 18 -104 20 -118 5 -34 10 -52 17 -70 3
-8 8 -28 11 -45 2 -16 12 -57 21 -90 9 -33 18 -64 19 -70 4 -21 38 -131 46
-150 5 -11 28 -69 51 -130 48 -128 152 -345 215 -452 24 -41 44 -78 44 -82 0
-4 9 -16 20 -26 11 -10 20 -22 20 -27 0 -8 47 -82 72 -113 5 -5 39 -51 76
-102 208 -283 457 -522 785 -757 106 -75 323 -200 471 -270 93 -45 334 -143
366 -150 8 -2 22 -6 30 -9 77 -29 332 -94 440 -112 19 -3 46 -7 60 -10 14 -3
45 -7 70 -10 25 -3 61 -7 80 -10 198 -27 647 -27 800 -1 14 3 48 7 75 11 82
10 119 16 138 21 10 3 31 7 47 9 16 2 46 8 67 14 21 6 49 12 63 15 78 16 222
59 360 108 93 33 119 44 228 94 39 18 72 30 72 27 0 -3 6 -1 13 5 6 5 55 32
107 60 137 71 347 202 432 268 20 16 48 38 63 48 14 11 34 27 44 35 10 9 40
34 67 56 181 151 413 395 529 559 11 16 29 40 41 55 111 140 284 455 389 706
19 45 86 234 90 253 2 9 8 29 14 45 6 15 13 38 16 50 2 12 9 40 15 62 15 56
19 76 26 109 2 16 7 32 9 36 6 9 36 180 41 235 2 28 7 61 10 75 25 126 25 664
-1 817 -3 16 -7 42 -9 58 -2 17 -10 62 -16 100 -7 39 -13 79 -15 90 -2 11 -8
40 -15 65 -7 25 -14 54 -15 65 -10 65 -84 297 -149 467 -32 84 -154 334 -201
413 -20 33 -38 68 -42 78 -3 9 -9 17 -14 17 -5 0 -9 6 -9 14 0 8 13 16 30 18
17 3 30 2 30 -1 0 -5 29 -6 140 -2 14 1 34 1 45 1 11 0 46 0 79 0 32 0 62 -3
67 -6 5 -3 9 0 9 6 0 6 5 8 11 4 14 -8 221 -8 269 1 47 8 75 28 104 74 24 37
25 44 26 245 1 232 -4 255 -68 304 l-35 27 -441 5 c-385 4 -441 7 -437 20 5
22 4 281 -2 286 -2 2 -1 21 2 42 4 20 5 48 1 61 -3 14 -3 49 0 79 4 29 2 55
-2 58 -5 3 -6 9 -3 14 6 10 7 67 3 207 -3 121 -12 142 -72 187 -25 20 -42 21
-239 23 -117 1 -222 -1 -235 -5z m-1852 -466 c19 -3 58 -8 85 -11 28 -3 61 -8
75 -11 14 -3 39 -7 56 -9 111 -13 471 -114 569 -160 17 -7 55 -23 85 -35 65
-25 242 -114 318 -159 29 -17 57 -31 62 -31 6 0 10 -3 10 -8 0 -4 16 -16 36
-27 19 -10 45 -27 56 -37 l21 -18 -24 0 c-13 -1 -118 0 -234 0 -115 0 -225 -4
-244 -10 -74 -21 -113 -87 -112 -189 0 -35 2 -66 5 -68 2 -2 1 -16 -3 -31 -4
-15 -4 -42 0 -60 4 -17 4 -34 0 -36 -6 -4 -5 -45 3 -121 2 -16 4 -35 5 -42 1
-16 77 -93 93 -94 7 -1 22 -3 33 -5 21 -3 47 -4 80 -4 29 0 198 1 213 0 23 0
47 0 106 0 32 0 62 -3 67 -6 5 -3 9 0 9 6 0 6 5 8 10 5 6 -4 31 -6 55 -5 56 1
55 1 141 -1 40 -1 77 1 82 5 6 3 13 3 16 -2 3 -5 19 -7 35 -4 l30 4 3 -439 3
-440 27 -35 c49 -64 69 -68 310 -65 l215 2 36 28 c44 34 56 54 63 109 3 24 7
49 9 56 3 6 0 12 -6 12 -6 0 -7 4 -4 10 3 5 6 55 6 111 0 115 1 114 53 -16 15
-38 34 -83 41 -100 43 -92 132 -441 151 -585 2 -19 7 -51 9 -70 14 -88 19
-201 19 -385 -1 -227 -12 -373 -38 -501 -2 -12 -7 -37 -10 -55 -18 -106 -76
-329 -101 -384 -7 -16 -17 -43 -21 -60 -13 -52 -74 -195 -141 -330 -68 -136
-223 -392 -252 -415 -3 -3 -18 -23 -34 -45 -15 -22 -39 -54 -54 -72 -16 -18
-46 -54 -68 -80 -47 -56 -275 -282 -336 -333 -81 -67 -234 -180 -294 -217 -33
-20 -61 -40 -63 -45 -2 -4 -8 -8 -12 -8 -5 0 -33 -14 -62 -31 -85 -51 -341
-176 -373 -184 -5 -1 -23 -8 -40 -15 -53 -22 -138 -50 -245 -81 -104 -31 -117
-34 -174 -45 -16 -2 -32 -6 -35 -8 -3 -2 -24 -7 -46 -10 -22 -3 -63 -11 -91
-17 -28 -5 -55 -9 -60 -8 -5 1 -11 0 -14 -1 -57 -22 -511 -34 -680 -17 -126
12 -161 17 -232 32 -32 6 -100 17 -120 18 -10 1 -18 5 -18 10 0 4 -4 6 -9 3
-4 -3 -48 6 -97 20 -49 14 -99 27 -112 30 -22 4 -71 21 -192 66 -57 21 -63 23
-145 58 -147 64 -397 202 -490 272 -5 4 -55 41 -110 82 -55 41 -117 91 -139
110 -21 20 -41 36 -43 36 -5 0 -251 248 -275 278 -22 27 -105 129 -118 145
-31 37 -100 138 -100 146 0 5 -4 11 -9 13 -5 2 -17 17 -27 35 -11 17 -40 66
-65 110 -61 102 -149 280 -184 368 -15 39 -33 84 -40 100 -20 45 -82 251 -101
330 -9 39 -17 75 -18 80 -3 10 -12 57 -21 110 -3 17 -8 48 -11 70 -3 22 -7 51
-9 65 -25 140 -25 611 -1 761 3 18 8 50 11 69 17 122 52 278 83 378 6 18 12
36 13 40 28 107 105 303 174 442 110 224 249 436 409 625 51 61 243 255 306
310 96 84 339 265 356 265 4 0 21 10 38 23 17 13 38 27 46 30 8 4 31 17 50 28
40 25 202 107 271 137 185 83 471 171 639 198 19 3 42 7 50 9 8 2 34 7 57 10
23 3 57 8 75 10 18 3 67 8 108 11 41 4 77 8 78 9 6 6 456 -3 492 -9z"/>
<path d="M1809 4880 c0 -8 -1 -662 -2 -1453 -2 -1416 0 -1493 27 -1448 4 6 12
8 19 6 23 -9 107 -11 107 -3 0 4 6 5 13 3 25 -9 98 -12 103 -4 2 4 10 6 17 4
23 -9 107 -11 107 -3 0 4 6 5 13 3 25 -9 98 -12 103 -4 2 4 10 6 17 4 20 -8
107 -12 107 -5 0 3 18 4 40 2 45 -5 42 -11 39 93 -1 22 -1 47 0 55 3 42 0 114
-5 121 -3 5 0 9 7 9 9 0 9 3 0 14 -7 9 -8 17 -3 20 6 3 7 20 3 39 -5 18 -5 41
-1 51 3 10 3 40 0 67 -4 29 -2 49 3 49 5 0 4 6 -2 14 -7 9 -8 17 -3 20 6 3 7
20 3 39 -5 18 -5 41 -1 51 3 10 3 40 0 67 -4 29 -2 49 3 49 5 0 4 6 -2 14 -7
9 -8 17 -3 20 6 3 7 20 3 39 -5 18 -5 41 -1 51 3 10 3 40 0 67 -4 29 -2 49 3
49 5 0 4 6 -2 14 -7 9 -8 17 -3 20 6 3 7 20 3 39 -5 18 -5 41 -1 51 3 10 3 40
0 67 -4 29 -2 49 3 49 5 0 4 6 -2 14 -7 9 -8 17 -3 20 6 3 7 20 3 39 -5 18 -5
41 -1 51 3 10 3 40 0 67 -4 29 -2 49 3 49 5 0 4 6 -2 14 -7 9 -8 17 -3 20 6 3
7 20 3 39 -5 18 -5 41 -1 51 3 10 3 40 0 67 -4 29 -2 49 3 49 5 0 4 6 -2 14
-7 9 -8 17 -3 20 6 3 7 20 3 39 -5 18 -5 41 -1 51 3 10 3 40 0 67 -4 31 -2 50
4 53 7 3 6 5 -1 5 -9 1 -10 8 -4 24 5 12 5 30 2 40 -4 10 -5 34 -3 54 l4 35
13 -28 c7 -16 19 -45 28 -64 8 -19 24 -55 35 -80 11 -25 39 -90 62 -145 23
-55 50 -118 60 -140 10 -22 36 -85 60 -140 23 -55 48 -113 55 -130 8 -16 80
-185 161 -375 80 -190 158 -371 172 -402 23 -53 37 -65 67 -58 15 4 56 3 98
-2 21 -3 39 -2 42 2 2 4 25 4 49 0 25 -4 50 -4 56 0 7 4 26 5 43 3 34 -4 39
-4 104 -3 40 1 42 3 63 53 13 29 34 77 48 107 14 30 25 61 25 68 0 6 4 12 9
12 4 0 8 7 8 15 0 8 4 23 10 33 5 9 18 37 29 62 26 61 161 379 174 410 6 14
10 28 9 33 -1 4 2 7 8 7 5 0 10 6 10 12 0 11 105 262 161 387 11 24 29 67 40
95 12 28 25 57 31 63 6 7 7 13 4 13 -4 0 0 12 8 28 18 34 30 65 28 75 -1 4 2
7 8 7 6 0 9 3 8 8 -2 11 22 65 27 60 3 -3 6 -108 4 -158 0 -8 0 -116 0 -240 0
-124 0 -232 0 -240 -1 -8 -1 -80 0 -160 0 -80 0 -152 0 -160 0 -8 0 -116 0
-240 0 -124 0 -232 0 -240 0 -8 0 -116 1 -240 1 -124 1 -230 0 -235 -1 -6 -2
-54 -1 -108 1 -76 4 -96 13 -90 7 4 24 6 38 5 14 -2 37 -4 53 -6 15 -2 30 0
33 5 2 4 10 6 17 4 23 -9 107 -11 107 -3 0 4 6 5 13 3 25 -9 98 -12 103 -4 2
4 10 6 17 4 22 -8 107 -11 107 -4 0 3 18 3 39 -1 22 -4 47 -3 56 3 13 7 16 6
10 -3 -6 -9 -3 -10 10 -3 10 6 32 7 51 3 20 -5 37 -4 40 2 4 7 8 2430 5 2853
l-1 61 -474 -1 c-261 0 -477 -2 -480 -5 -3 -3 -46 -102 -96 -220 -50 -118 -99
-233 -110 -255 -10 -22 -89 -206 -175 -410 -87 -203 -160 -374 -163 -380 -4
-5 -7 -14 -9 -20 -4 -24 -109 -255 -114 -255 -8 0 -125 272 -121 282 1 5 -2 8
-8 8 -5 0 -10 8 -10 18 0 9 -7 26 -15 36 -8 11 -15 25 -15 32 0 7 -16 47 -35
88 -19 42 -35 78 -35 81 0 3 -9 24 -19 48 -11 23 -65 150 -121 282 -56 132
-107 254 -115 270 -7 17 -27 64 -44 105 -17 41 -38 89 -45 105 -24 53 -44 99
-61 143 -10 23 -20 43 -24 43 -3 1 -219 2 -478 3 -419 2 -473 0 -474 -14z"/>
</g>
</svg>
